<svg width="64" height="64" viewBox="0 0 64 64" fill="none" xmlns="http://www.w3.org/2000/svg">
<path d="M14 13C15.6625 13 17 11.6625 17 10C17 8.3375 15.6625 7 14 7C12.3375 7 11 8.3375 11 10C11 11.6625 12.3375 13 14 13ZM24 10C24 14.1 21.5375 17.625 18 19.1625V30.1375C20.35 28.775 23.0875 28 26 28H38C42.4125 28 46 24.4125 46 20V19.1625C42.4625 17.625 40 14.1 40 10C40 4.475 44.475 0 50 0C55.525 0 60 4.475 60 10C60 14.1 57.5375 17.625 54 19.1625V20C54 28.8375 46.8375 36 38 36H26C21.5875 36 18 39.5875 18 44V44.8375C21.5375 46.375 24 49.9 24 54C24 59.525 19.525 64 14 64C8.475 64 4 59.525 4 54C4 49.9 6.4625 46.375 10 44.8375V44V19.1625C6.4625 17.625 4 14.1 4 10C4 4.475 8.475 0 14 0C19.525 0 24 4.475 24 10ZM53 10C53 8.3375 51.6625 7 50 7C48.3375 7 47 8.3375 47 10C47 11.6625 48.3375 13 50 13C51.6625 13 53 11.6625 53 10ZM14 57C15.6625 57 17 55.6625 17 54C17 52.3375 15.6625 51 14 51C12.3375 51 11 52.3375 11 54C11 55.6625 12.3375 57 14 57Z" fill="white"/>
</svg>
