<svg width="64" height="64" viewBox="0 0 64 64" fill="none" xmlns="http://www.w3.org/2000/svg">
<path d="M9.85556 28.4222L0 45.3111V14.2222C0 10.3 3.18889 7.11108 7.11111 7.11108H20.1667C22.0556 7.11108 23.8667 7.85553 25.2 9.18886L28.1444 12.1333C29.4778 13.4666 31.2889 14.2111 33.1778 14.2111H46.2222C50.1444 14.2111 53.3333 17.4 53.3333 21.3222V24.8778H16C13.4667 24.8778 11.1333 26.2222 9.85556 28.4111V28.4222ZM12.9222 30.2111C13.5667 29.1111 14.7333 28.4444 16 28.4444H60.4444C61.7222 28.4444 62.8889 29.1222 63.5222 30.2333C64.1556 31.3444 64.1556 32.7 63.5111 33.8L51.0667 55.1333C50.4333 56.2222 49.2667 56.8889 48 56.8889H3.55556C2.27778 56.8889 1.11111 56.2111 0.477778 55.1C-0.155556 53.9889 -0.155556 52.6333 0.488889 51.5333L12.9333 30.2L12.9222 30.2111Z" fill="white"/>
</svg>
