<svg width="64" height="64" viewBox="0 0 64 64" fill="none" xmlns="http://www.w3.org/2000/svg">
<g clip-path="url(#clip0_2_6)">
<path d="M21.0625 8.99999L32 20.625L42.9375 8.99999H21.0625ZM47.9875 12.3875L38.9375 22H55.0625L47.9875 12.3875ZM54.2375 28H32H9.76255L32 52.5375L54.2375 28ZM8.93755 22H25.0625L16.0125 12.3875L8.93755 22ZM63.225 27.0125L34.225 59.0125C33.65 59.6375 32.85 60 32 60C31.15 60 30.35 59.6375 29.775 59.0125L0.775047 27.0125C-0.187453 25.95 -0.262453 24.3625 0.587547 23.2125L14.5875 4.21249C15.15 3.44999 16.05 2.98749 17 2.98749H47C47.95 2.98749 48.85 3.43749 49.4125 4.21249L63.4125 23.2125C64.2625 24.3625 64.175 25.95 63.225 27.0125Z" fill="white"/>
</g>
<defs>
<clipPath id="clip0_2_6">
<rect width="64" height="64" fill="white"/>
</clipPath>
</defs>
</svg>
