<svg width="64" height="64" viewBox="0 0 64 64" fill="none" xmlns="http://www.w3.org/2000/svg">
<path d="M60.4444 3.55554C62.4111 3.55554 64 5.14443 64 7.1111V56.8889C64 58.8555 62.4111 60.4444 60.4444 60.4444C58.4778 60.4444 56.8889 58.8555 56.8889 56.8889V7.1111C56.8889 5.14443 58.4778 3.55554 60.4444 3.55554ZM46.2222 14.2222C48.1889 14.2222 49.7778 15.8111 49.7778 17.7778V56.8889C49.7778 58.8555 48.1889 60.4444 46.2222 60.4444C44.2556 60.4444 42.6667 58.8555 42.6667 56.8889V17.7778C42.6667 15.8111 44.2556 14.2222 46.2222 14.2222ZM35.5556 28.4444V56.8889C35.5556 58.8555 33.9667 60.4444 32 60.4444C30.0333 60.4444 28.4444 58.8555 28.4444 56.8889V28.4444C28.4444 26.4778 30.0333 24.8889 32 24.8889C33.9667 24.8889 35.5556 26.4778 35.5556 28.4444ZM17.7778 35.5555C19.7444 35.5555 21.3333 37.1444 21.3333 39.1111V56.8889C21.3333 58.8555 19.7444 60.4444 17.7778 60.4444C15.8111 60.4444 14.2222 58.8555 14.2222 56.8889V39.1111C14.2222 37.1444 15.8111 35.5555 17.7778 35.5555ZM7.11111 49.7778V56.8889C7.11111 58.8555 5.52222 60.4444 3.55556 60.4444C1.58889 60.4444 0 58.8555 0 56.8889V49.7778C0 47.8111 1.58889 46.2222 3.55556 46.2222C5.52222 46.2222 7.11111 47.8111 7.11111 49.7778Z" fill="white"/>
</svg>
